<svg width="512" height="512" viewBox="0 0 512 512" fill="none" xmlns="http://www.w3.org/2000/svg">
<path d="M237.337 122.348L102.339 367.348C94.994 380.677 104.637 397 119.856 397H151.715C159.006 397 165.72 393.032 169.236 386.645L277.008 190.859C280.524 184.471 287.238 180.503 294.529 180.503H315C326.046 180.503 335 171.549 335 160.503V132C335 120.954 326.046 112 315 112H254.854C247.566 112 240.855 115.965 237.337 122.348Z" fill="black"/>
<path d="M344 185H319C307.954 185 299 193.954 299 205V233C299 244.046 307.954 253 319 253H344C355.046 253 364 244.046 364 233V205C364 193.954 355.046 185 344 185Z" fill="black"/>
<path d="M373 259H348C336.954 259 328 267.954 328 279V307C328 318.046 336.954 327 348 327H373C384.046 327 393 318.046 393 307V279C393 267.954 384.046 259 373 259Z" fill="black"/>
<path d="M405 332H380C368.954 332 360 340.954 360 352V380C360 391.046 368.954 400 380 400H405C416.046 400 425 391.046 425 380V352C425 340.954 416.046 332 405 332Z" fill="black"/>
</svg>
